<?xml version="1.0" encoding="utf-8"?>
<!-- Generator: Adobe Illustrator 25.4.1, SVG Export Plug-In . SVG Version: 6.00 Build 0)  -->
<svg version="1.1" xmlns="http://www.w3.org/2000/svg" xmlns:xlink="http://www.w3.org/1999/xlink" x="0px" y="0px"
	 viewBox="0 0 388.6 280.4" style="enable-background:new 0 0 388.6 280.4;" xml:space="preserve">
<style type="text/css">
	.st0{fill:#FFFFFF;}
	.st1{fill:none;stroke:#000000;stroke-width:0.75;stroke-miterlimit:10;}
	.st2{fill:none;stroke:#FFFFFF;stroke-width:8;stroke-miterlimit:10;}
</style>
<g id="Capa_1">
	<path class="st0" d="M-592,384.7"/>
	<path class="st1" d="M319.8,139.7"/>
	<g>
		<g>
			<path class="st0" d="M16.3,266.5c3.4-5.4,6.8-10.8,10.2-16.2c8.1-12.9,16.3-25.8,24.4-38.8c9.9-15.7,19.7-31.3,29.6-47
				c8.5-13.5,17-26.9,25.4-40.4c4.1-6.5,8.4-12.9,12.3-19.5c0.1-0.2,0.3-0.4,0.4-0.6c-0.6,0.6-1.2,1.2-1.8,1.8c-1.1,0-2.2,0-3.3,0
				c-0.6-0.6-1.2-1.2-1.8-1.8c1,1.4,1.8,3.1,2.6,4.6c2.2,3.9,4.4,7.7,6.5,11.6c7.2,12.8,14.4,25.7,21.6,38.5
				c8.7,15.6,17.5,31.1,26.2,46.7c7.6,13.5,15.1,26.9,22.7,40.4c2.5,4.4,5,8.8,7.4,13.2c1.2,2.1,2.2,4.3,3.6,6.4
				c0.7,1.1-1.3-0.2-0.4-2.4c0.4-0.7,0.9-1.5,1.3-2.2c1.2-1.4,3.5-0.8,1.8-0.9c-0.6,0-1.2,0-1.8,0c-2.2,0-4.4-0.1-6.6-0.1
				c-7.3-0.1-14.6-0.2-21.8-0.3c-16.4-0.2-32.7-0.5-49.1-0.7c-2.7,0-5.4-0.1-8.2-0.1c-0.8,0-1.5,0-2.3,0c-2.3,0,1.5-0.2,2.3,1.5
				c0.2,0.8,0.5,1.7,0.7,2.5c0,0.6-1,2.4-0.4,1.3c0.2-0.4,0.5-0.9,0.7-1.3c0.9-1.6,1.7-3.2,2.6-4.9c3.2-6,6.5-12,9.7-18
				c4.8-8.8,9.5-17.7,14.3-26.5c5.8-10.8,11.6-21.6,17.4-32.3c6.4-11.8,12.7-23.6,19.1-35.4c6.5-12,12.9-23.9,19.4-35.9
				c6-11.1,12-22.2,18-33.3c5.1-9.4,10.1-18.8,15.2-28.1c3.6-6.8,7.3-13.5,10.9-20.3c1.7-3.2,3.3-6.4,5.1-9.5
				c0.1-0.3,0.3-0.5,0.4-0.7c-0.6,0.6-1.2,1.2-1.8,1.8c-1.1,0-2.2,0-3.3,0c-0.6-0.6-1.2-1.2-1.8-1.8c1.4,2.1,2.4,4.6,3.6,6.8
				c3.1,5.9,6.2,11.9,9.3,17.8c4.6,8.8,9.1,17.5,13.7,26.3c5.6,10.8,11.2,21.5,16.8,32.3c6.1,11.7,12.2,23.5,18.4,35.2
				c6.2,11.8,12.4,23.7,18.5,35.5c5.8,11.1,11.6,22.2,17.4,33.3c4.9,9.3,9.7,18.7,14.6,28c3.5,6.7,7,13.4,10.5,20.2
				c1.7,3.2,3.2,6.5,5,9.6c0.6,1-0.5-0.1-0.4-1.3c0.2-0.8,0.5-1.7,0.7-2.5c0.8-1.8,4.6-1.5,2.3-1.5c-0.7,0-1.5,0-2.2,0
				c-2.7,0-5.5,0-8.2,0c-8.9,0-17.8,0.1-26.7,0.1c-20.1,0.1-40.3,0.2-60.4,0.2c-4.6,0-9.2,0-13.7,0.1c-2.7,0-5,2.3-5,5
				c0,2.7,2.3,5,5,5c5.9,0,11.8,0,17.7-0.1c12.9-0.1,25.8-0.1,38.8-0.2c12.9-0.1,25.7-0.1,38.6-0.2c4.2,0,8.4,0,12.6-0.1
				c2,0,4.3,0.3,6.3-0.3c4.1-1.1,5.3-5.7,3.6-9.2c-0.2-0.3-0.4-0.7-0.5-1c-0.8-1.5-1.6-3.1-2.4-4.6c-3.2-6.1-6.3-12.1-9.5-18.2
				c-4.8-9.2-9.6-18.4-14.4-27.5c-5.9-11.3-11.7-22.5-17.6-33.8c-6.4-12.3-12.8-24.6-19.3-36.9c-6.4-12.3-12.8-24.6-19.3-37
				c-5.9-11.3-11.8-22.6-17.7-33.9c-4.8-9.2-9.6-18.4-14.4-27.7c-3.2-6.1-6.4-12.2-9.6-18.4c-2.2-4.1-4.3-10.7-10.4-8.9
				c-3.5,1.1-5.4,6.3-7,9.3c-3.3,6.2-6.6,12.3-10,18.5c-5,9.2-9.9,18.4-14.9,27.5c-6,11.2-12.1,22.4-18.1,33.6
				c-6.6,12.2-13.2,24.4-19.8,36.6c-6.6,12.2-13.2,24.5-19.8,36.7c-6.1,11.2-12.1,22.5-18.2,33.7c-5,9.2-10,18.5-15,27.7
				c-3.4,6.2-6.7,12.5-10.1,18.7c-1.4,2.6-3.5,5.5-4.3,8.4c-1.1,4.4,2.6,7.6,6.6,7.7c1.1,0,2.1,0,3.2,0c4.4,0.1,8.9,0.1,13.3,0.2
				c13.4,0.2,26.7,0.4,40.1,0.6c10.4,0.1,20.8,0.3,31.2,0.4c0.9,0,1.8,0.1,2.6,0c4.9-0.1,7.9-4.9,5.6-9.3c-0.5-1-1.1-2-1.7-3
				c-3.6-6.4-7.2-12.8-10.8-19.3c-5.8-10.4-11.7-20.8-17.5-31.2c-6.8-12.1-13.6-24.2-20.4-36.3c-6.5-11.5-13-23.1-19.5-34.6
				c-4.9-8.7-9.8-17.4-14.7-26.1c-2-3.6-3.8-7.3-6-10.7c-2.7-4.2-8.2-3.9-10.9,0.1c-0.2,0.4-0.5,0.7-0.7,1.1
				c-1.2,1.9-2.4,3.7-3.5,5.6c-4.7,7.4-9.4,14.9-14.1,22.3c-6.7,10.7-13.4,21.3-20.1,32c-7.4,11.8-14.9,23.7-22.3,35.5
				c-6.9,10.9-13.8,21.9-20.7,32.8c-5,8-10,15.9-15.1,23.9c-1.9,3-3.7,5.9-5.6,8.9c-1.4,2.3-0.5,5.5,1.8,6.8
				C11.8,269.7,14.8,268.8,16.3,266.5L16.3,266.5z"/>
		</g>
	</g>
	<circle class="st2" cx="234.9" cy="262.5" r="8.6"/>
</g>
<g id="Capa_2">
</g>
</svg>
